<svg width="136" height="41" viewBox="0 0 136 41" fill="none" xmlns="http://www.w3.org/2000/svg">
<path d="M15.177 24.7257H8.70435C8.70435 24.7257 8.78095 26.6327 9.20225 27.9638C9.62354 29.2949 9.93202 30.3473 10.7789 31.628C13.2493 35.3636 16.2574 36.9023 20.6539 36.9964C24.4148 37.0768 27.0419 35.7098 29.5331 33.4174C31.2926 31.7984 32.7938 27.9684 32.8525 25.9187C33.0184 20.1242 32.9355 6.74585 32.9355 6.74585H26.3798C26.3798 6.74585 26.6287 18.5052 26.3798 25.9187C26.334 27.2821 25.47 28.267 24.4712 29.1568C23.2556 30.2397 21.9817 30.5202 20.6539 30.5202C19.3262 30.5202 17.4099 29.3791 16.2558 27.9638C15.3131 26.8078 15.177 24.7257 15.177 24.7257Z" fill="#67A1FE"/>
<path d="M53.1824 5.04102L36.9177 34.9507L44.8011 35.0359L53.4314 19.0159L62.0617 35.0359H69.4472L53.1824 5.04102Z" fill="url(#paint0_linear_224_342)"/>
<path d="M94.8887 24.8967C94.8887 24.8967 92.0672 29.3941 86.8393 28.9869C84.2814 28.7877 82.6301 27.9928 80.9475 26.0044C79.3474 24.1137 78.8155 22.4586 78.8729 19.9543C78.9267 17.6064 79.4659 16.1195 80.9475 14.3303C82.7978 12.0958 85.3107 11.2431 88.167 11.2626C91.7353 11.287 94.5567 14.9268 94.5567 14.9268L101.776 14.7564C101.776 14.7564 99.7847 9.72882 96.7973 7.76893C93.5843 5.66103 91.4818 4.55586 87.6691 4.53085C83.6407 4.50442 80.9818 5.38853 77.8771 8.02457C75.1129 10.3715 73.7823 12.2742 72.9811 15.8641C72.0683 19.9543 72.4034 23.3427 73.23 25.4932C74.4748 28.7313 75.9685 30.7764 79.8687 33.5884C82.1857 35.2589 84.0108 35.5092 86.8393 35.6335C90.8225 35.8085 92.0672 35.2074 95.1376 33.5884C99.9273 31.0627 101.942 24.8967 101.942 24.8967H94.8887Z" fill="url(#paint1_linear_224_342)"/>
<path d="M109.114 5.55225H115.752V20.2088L125.959 5.55225H133.76L123.553 20.4645L136 35.7175H128.283L115.752 20.6349V35.7175H109.114V5.55225Z" fill="#BD34FE"/>
<g filter="url(#filter0_d_224_342)">
<path d="M10.4727 20.1955H4C4 20.1955 4.07661 22.1024 4.4979 23.4335C4.91919 24.7647 5.22767 25.817 6.07458 27.0977C8.54499 30.8334 11.5531 32.372 15.9496 32.4661C19.7105 32.5466 22.3375 31.1796 24.8288 28.8872C26.5883 27.2681 28.0894 23.4382 28.1481 21.3884C28.3141 15.594 28.2311 2.21558 28.2311 2.21558H21.6754C21.6754 2.21558 21.9244 13.9749 21.6754 21.3884C21.6297 22.7518 20.7657 23.7367 19.7668 24.6265C18.5512 25.7094 17.2773 25.9899 15.9496 25.9899C14.6219 25.9899 12.7055 24.8488 11.5515 23.4335C10.6088 22.2775 10.4727 20.1955 10.4727 20.1955Z" fill="white"/>
<path d="M48.4798 0.510742L32.2151 30.4204L40.0985 30.5056L48.7288 14.4856L57.359 30.5056H64.7445L48.4798 0.510742Z" fill="white"/>
<path d="M90.1851 20.3664C90.1851 20.3664 87.3636 24.8638 82.1357 24.4566C79.5778 24.2574 77.9265 23.4625 76.2439 21.4742C74.6438 19.5834 74.1119 17.9283 74.1693 15.4241C74.2231 13.0761 74.7623 11.5893 76.2439 9.80003C78.0942 7.56548 80.6071 6.71285 83.4634 6.73237C87.0317 6.75676 89.8531 10.3965 89.8531 10.3965L97.0727 10.2261C97.0727 10.2261 95.0811 5.19855 92.0937 3.23865C88.8807 1.13076 86.7782 0.0255825 82.9655 0.00057263C78.9371 -0.0258526 76.2782 0.858259 73.1735 3.49429C70.4093 5.84119 69.0786 7.74391 68.2775 11.3339C67.3647 15.4241 67.6998 18.8124 68.5264 20.9629C69.7712 24.201 71.2649 26.2461 75.1651 29.0581C77.4821 30.7287 79.3072 30.979 82.1357 31.1032C86.1189 31.2782 87.3636 30.6772 90.434 29.0581C95.2237 26.5324 97.2386 20.3664 97.2386 20.3664H90.1851Z" fill="white"/>
<path d="M104.411 1.02197H111.049V15.6786L121.256 1.02197H129.057L118.85 15.9342L131.297 31.1873H123.58L111.049 16.1046V31.1873H104.411V1.02197Z" fill="white"/>
</g>
<defs>
<filter id="filter0_d_224_342" x="0" y="0" width="135.297" height="40.4695" filterUnits="userSpaceOnUse" color-interpolation-filters="sRGB">
<feFlood flood-opacity="0" result="BackgroundImageFix"/>
<feColorMatrix in="SourceAlpha" type="matrix" values="0 0 0 0 0 0 0 0 0 0 0 0 0 0 0 0 0 0 127 0" result="hardAlpha"/>
<feOffset dy="4"/>
<feGaussianBlur stdDeviation="2"/>
<feComposite in2="hardAlpha" operator="out"/>
<feColorMatrix type="matrix" values="0 0 0 0 0 0 0 0 0 0 0 0 0 0 0 0 0 0 0.25 0"/>
<feBlend mode="normal" in2="BackgroundImageFix" result="effect1_dropShadow_224_342"/>
<feBlend mode="normal" in="SourceGraphic" in2="effect1_dropShadow_224_342" result="shape"/>
</filter>
<linearGradient id="paint0_linear_224_342" x1="61.1945" y1="20.0394" x2="69.4472" y2="20.0385" gradientUnits="userSpaceOnUse">
<stop stop-color="#67A1FE"/>
<stop offset="1" stop-color="#BD34FE"/>
</linearGradient>
<linearGradient id="paint1_linear_224_342" x1="53.3884" y1="20.0393" x2="101.942" y2="20.0936" gradientUnits="userSpaceOnUse">
<stop stop-color="#67A1FE"/>
<stop offset="1" stop-color="#BD34FE"/>
</linearGradient>
</defs>
</svg>
